<svg width="278" height="22" viewBox="0 0 278 22" fill="none" xmlns="http://www.w3.org/2000/svg">
<g opacity="0.25">
<path d="M185.663 18.1886C180.378 18.1886 175.092 18.1872 169.807 18.1843C169.713 18.1794 169.618 18.1967 169.532 18.2347C169.446 18.2727 169.369 18.3305 169.309 18.4033C166.928 21.0006 163.966 22.2067 160.456 21.9711C155.58 21.6405 151.5 17.8733 150.711 13.0393C150.251 10.2651 150.897 7.42126 152.51 5.11804C154.123 2.81482 156.575 1.23583 159.339 0.719949C163.879 -0.138882 168.522 2.07752 170.729 6.14776C170.892 6.44897 170.892 6.4502 170.552 6.45081C169.826 6.45081 169.1 6.44099 168.374 6.45633C168.144 6.46185 168.006 6.3864 167.866 6.20666C166.521 4.49635 164.78 3.43447 162.626 3.08419C160.614 2.7575 158.551 3.1825 156.832 4.27822C155.112 5.37395 153.856 7.06385 153.302 9.02608C151.944 13.8429 155.131 18.791 160.111 19.4731C163.534 19.9418 166.246 18.6419 168.231 15.8335C168.376 15.6293 168.514 15.5655 168.751 15.5655C179.117 15.5708 189.483 15.5675 199.85 15.5556C201.325 15.5514 201.992 16.9052 201.874 18.0242C201.863 18.1321 201.826 18.1972 201.705 18.1892C201.623 18.1843 201.541 18.1892 201.46 18.1892L185.663 18.1886Z" fill="black"/>
<path d="M154.852 10.8854C154.852 9.78115 154.859 8.67694 154.846 7.57273C154.846 7.32735 154.897 7.23594 155.161 7.24331C155.804 7.26232 156.45 7.24883 157.092 7.25005C157.858 7.25005 158.299 7.59297 158.514 8.33954C158.798 9.32965 159.084 10.3189 159.373 11.3074C159.4 11.4013 159.373 11.5645 159.536 11.5528C159.668 11.5461 159.649 11.4031 159.676 11.3136C159.964 10.3247 160.251 9.33538 160.534 8.34568C160.755 7.58132 161.193 7.2476 161.98 7.24699C162.634 7.24699 163.288 7.25374 163.943 7.24269C164.143 7.23901 164.205 7.29422 164.205 7.4985C164.198 9.76704 164.198 12.0356 164.205 14.3041C164.205 14.5268 164.132 14.5753 163.926 14.571C163.323 14.5587 162.72 14.5563 162.117 14.571C161.894 14.5765 161.849 14.4992 161.85 14.2931C161.86 13.0766 161.855 11.8608 161.855 10.6449C161.855 10.5731 161.855 10.5013 161.855 10.4302C161.855 10.359 161.869 10.2713 161.768 10.2639C161.667 10.2566 161.663 10.3431 161.645 10.4106L161.213 11.8135C160.958 12.6423 160.698 13.4698 160.454 14.3004C160.396 14.4955 160.322 14.5845 160.1 14.5716C159.712 14.5495 159.323 14.5556 158.934 14.5716C158.75 14.5783 158.671 14.5194 158.616 14.3379C158.244 13.0975 157.857 11.8614 157.475 10.6246C157.457 10.5633 157.44 10.5075 157.419 10.4498C157.391 10.3695 157.399 10.2394 157.265 10.2725C157.16 10.2989 157.203 10.4112 157.203 10.4848C157.203 11.7117 157.203 12.9386 157.203 14.1655C157.203 14.6354 157.261 14.5648 156.795 14.5685C156.234 14.5722 155.672 14.5599 155.11 14.574C154.905 14.579 154.851 14.5158 154.852 14.3164C154.856 13.1729 154.852 12.0301 154.852 10.8854Z" fill="black"/>
<path d="M175.798 14.571C174.96 14.571 174.126 14.571 173.292 14.571C173.137 14.571 173.119 14.4483 173.071 14.3544C172.736 13.7232 172.402 13.092 172.078 12.4527C171.999 12.2975 171.912 12.2178 171.728 12.2331C171.514 12.25 171.299 12.25 171.084 12.2331C170.889 12.2184 170.843 12.2945 170.846 12.4785C170.857 13.092 170.842 13.7054 170.855 14.3189C170.859 14.5213 170.798 14.5771 170.599 14.5728C169.985 14.5606 169.372 14.5593 168.758 14.5728C168.547 14.5777 168.509 14.5004 168.51 14.3103C168.517 13.1447 168.515 11.9792 168.51 10.8136C168.51 10.6682 168.507 10.5682 168.71 10.5682C171.01 10.5756 173.311 10.5737 175.61 10.5756C175.639 10.582 175.667 10.5916 175.693 10.6044C175.59 10.9034 175.428 11.1785 175.216 11.4135C175.004 11.6485 174.747 11.8386 174.461 11.9724C174.238 12.0785 174.231 12.1503 174.362 12.3405C174.803 12.9791 175.23 13.6287 175.657 14.2759C175.714 14.3593 175.799 14.4274 175.798 14.571Z" fill="black"/>
<path d="M171.019 7.25314C171.836 7.25314 172.653 7.23842 173.473 7.25682C174.859 7.28749 175.966 8.53157 175.865 9.90754C175.846 10.1695 175.768 10.2676 175.482 10.2627C174.278 10.2443 173.072 10.2627 171.867 10.2535C170.121 10.24 168.693 9.14932 168.251 7.53533C168.183 7.28565 168.242 7.24455 168.479 7.24762C169.326 7.25928 170.174 7.25191 171.022 7.25191L171.019 7.25314Z" fill="black"/>
<path d="M167.528 10.8849C167.528 12.029 167.525 13.1724 167.532 14.3165C167.532 14.5067 167.496 14.5821 167.287 14.5772C166.664 14.5625 166.041 14.5662 165.418 14.5772C165.249 14.5772 165.191 14.5374 165.191 14.3582C165.197 12.0602 165.197 9.76246 165.191 7.46488C165.191 7.31336 165.222 7.24772 165.392 7.25017C166.025 7.25937 166.658 7.26367 167.294 7.25017C167.516 7.24404 167.536 7.33912 167.534 7.51886C167.525 8.63841 167.528 9.76164 167.528 10.8849Z" fill="black"/>
<path d="M189.971 12.1504C189.971 11.4866 189.977 10.8229 189.967 10.1585C189.967 9.97446 190.021 9.91312 190.213 9.91312C190.989 9.92232 191.765 9.92109 192.544 9.91312C192.717 9.91312 192.795 9.9444 192.799 10.145C192.814 10.875 192.822 10.875 192.096 10.875C191.83 10.875 191.564 10.8854 191.298 10.8719C191.12 10.8627 191.078 10.9296 191.076 11.0989C191.066 11.6786 191.059 11.678 191.647 11.678H191.739C192.492 11.678 192.487 11.678 192.444 12.427C192.436 12.5761 192.388 12.6184 192.246 12.6148C191.939 12.6074 191.633 12.6209 191.326 12.6098C191.149 12.6031 191.076 12.643 191.073 12.8423C191.065 13.4558 191.056 13.4558 191.671 13.4558C192.007 13.4558 192.346 13.4675 192.682 13.4521C192.9 13.4423 192.901 13.5871 192.863 13.7061C192.787 13.9361 193.078 14.3539 192.693 14.3846C191.85 14.452 190.999 14.4017 190.151 14.4085C189.958 14.4085 189.973 14.295 189.973 14.168C189.972 13.4973 189.972 12.8248 189.971 12.1504Z" fill="black"/>
<path d="M185.25 12.1688C185.289 11.2265 185.662 10.4959 186.512 10.099C187.412 9.67818 188.296 9.76467 189.122 10.3346C189.255 10.4266 189.293 10.5137 189.19 10.6591C189.061 10.8431 188.992 11.1026 188.822 11.2112C188.62 11.3406 188.454 11.0621 188.259 10.9873C187.689 10.7671 187.072 10.8486 186.721 11.2265C186.371 11.6044 186.296 12.3234 186.564 12.8368C186.825 13.3362 187.401 13.5803 187.975 13.4337C188.161 13.379 188.339 13.302 188.507 13.2043C188.635 13.135 188.77 12.9025 188.866 12.992C189.076 13.189 189.223 13.4583 189.378 13.7079C189.421 13.7754 189.322 13.8306 189.27 13.8723C188.452 14.5422 187.537 14.6698 186.575 14.2723C185.644 13.8871 185.288 13.1117 185.25 12.1688Z" fill="black"/>
<path d="M180.886 12.1854C180.902 11.2388 181.281 10.5113 182.124 10.1064C183.02 9.677 183.903 9.75982 184.736 10.3242C184.877 10.4205 184.939 10.5193 184.811 10.6677C184.798 10.6838 184.787 10.7011 184.777 10.7193C184.664 10.9002 184.589 11.1579 184.426 11.2413C184.263 11.3247 184.094 11.072 183.908 11.0002C183.4 10.8058 182.901 10.7732 182.46 11.1321C182.036 11.4763 181.965 11.9547 182.064 12.4676C182.205 13.1982 182.883 13.6215 183.607 13.4332C183.772 13.3822 183.932 13.3152 184.085 13.2332C184.236 13.162 184.379 12.9025 184.5 13.0019C184.712 13.1767 184.851 13.446 185.003 13.6871C185.058 13.7761 184.945 13.8282 184.887 13.8761C184.069 14.5509 183.151 14.6736 182.192 14.2681C181.281 13.8853 180.91 13.1234 180.886 12.1854Z" fill="black"/>
<path d="M200.738 9.77816C201.371 9.77816 202.005 9.78306 202.64 9.77448C202.805 9.77448 202.865 9.8119 202.87 9.99164C202.89 10.8247 202.896 10.8247 202.063 10.8247C201.344 10.8247 201.344 10.8247 201.344 11.5314C201.344 12.5227 201.34 13.5135 201.348 14.5042C201.348 14.6956 201.308 14.7851 201.097 14.7667C200.893 14.7464 200.688 14.7464 200.484 14.7667C200.197 14.7993 200.101 14.7158 200.107 14.4073C200.128 13.3147 200.107 12.2209 200.12 11.1284C200.12 10.8995 200.078 10.7989 199.824 10.8186C199.508 10.8425 199.19 10.8143 198.874 10.8278C198.683 10.8357 198.611 10.7885 198.609 10.5787C198.603 9.77754 198.595 9.77754 199.39 9.77754L200.738 9.77816Z" fill="black"/>
<path d="M193.202 9.90943C194.387 9.90943 195.571 9.87385 196.753 9.92108C197.634 9.95666 198.291 10.8081 198.206 11.6829C198.198 11.7725 198.215 11.878 198.074 11.8737C197.045 11.84 196.008 11.9853 194.99 11.7927C194.055 11.6154 193.337 10.8204 193.202 9.90943Z" fill="black"/>
<path d="M198.193 12.0572C197.981 12.6737 197.523 13.0221 196.918 13.0332C196.296 13.0448 195.672 13.0485 195.05 13.0332C194.804 13.0264 194.701 13.0853 194.72 13.3491C194.742 13.6436 194.72 13.9411 194.727 14.2374C194.727 14.3785 194.683 14.4263 194.534 14.4355C193.614 14.4926 193.614 14.4969 193.614 13.5853C193.614 13.146 193.62 12.7068 193.614 12.2682C193.611 12.1105 193.66 12.0547 193.823 12.0553C195.27 12.0596 196.719 12.0572 198.193 12.0572Z" fill="black"/>
<path d="M180.693 14.1312C180.263 12.9098 179.852 11.6817 179.435 10.456C179.251 9.91925 179.251 9.91925 178.691 9.91925C178.62 9.9257 178.549 9.9257 178.477 9.91925C178.179 9.86404 178.048 10.0002 177.968 10.2812C177.831 10.7609 177.655 11.2296 177.495 11.7026C177.216 12.5234 176.936 13.3435 176.662 14.1649C176.633 14.2514 176.511 14.3974 176.723 14.4066C177.039 14.4201 177.384 14.479 177.662 14.3747C177.858 14.3017 177.823 13.9404 177.907 13.7134C177.92 13.6855 177.93 13.6563 177.936 13.6263C177.952 13.5006 178.022 13.4619 178.145 13.4644C178.492 13.4711 178.84 13.473 179.188 13.4644C179.326 13.4601 179.387 13.5135 179.425 13.6398C179.499 13.8913 179.486 14.23 179.684 14.368C179.894 14.514 180.22 14.3882 180.493 14.4165C180.749 14.4398 180.774 14.3655 180.693 14.1312ZM178.446 11.8749C178.523 11.6056 178.589 11.3326 178.674 11.0094C178.823 11.5615 178.96 12.0627 179.098 12.57C178.214 12.67 178.216 12.6706 178.446 11.8749Z" fill="black"/>
<path fill-rule="evenodd" clip-rule="evenodd" d="M114.383 14.2777C114.331 14.699 114.261 15.1056 114.175 15.4937C113.807 15.376 113.399 15.1865 112.81 15.227C112.46 15.2509 112.045 15.3852 112.039 15.7016C112.039 16.0511 112.609 16.2535 112.93 16.4136C113.507 16.6895 114.127 17.0593 114.175 17.808C114.189 18.0605 114.149 18.313 114.056 18.5485C113.964 18.784 113.823 18.997 113.641 19.1731C112.832 19.9384 111.038 20.0175 109.813 19.53C109.89 19.1216 109.958 18.7058 110.021 18.2827C110.496 18.485 111.147 18.7573 111.861 18.669C112.186 18.6285 112.584 18.439 112.573 18.1042C112.56 17.6976 111.798 17.4548 111.415 17.2451C110.97 16.9986 110.464 16.592 110.437 15.9684C110.426 15.582 110.551 15.2041 110.792 14.9013C111.425 14.1158 113.051 13.8362 114.383 14.2795V14.2777Z" fill="black"/>
<path fill-rule="evenodd" clip-rule="evenodd" d="M99.8403 6.33026H101.476L100.469 12.679H98.8322L99.8403 6.33026Z" fill="black"/>
<path fill-rule="evenodd" clip-rule="evenodd" d="M95.6072 7.59227L95.3551 9.18543H95.8279C96.0555 9.18168 96.2752 9.10087 96.4509 8.95619C96.6267 8.81151 96.7482 8.61151 96.7956 8.38885C96.8135 8.28801 96.8084 8.18442 96.7806 8.08585C96.7528 7.98727 96.7031 7.89626 96.6351 7.81963C96.5672 7.743 96.4828 7.68275 96.3882 7.64337C96.2937 7.604 96.1914 7.58653 96.0892 7.59227H95.6072ZM94.1722 6.33026H96.676C98.271 6.33026 98.6849 7.2501 98.5157 8.3539C98.4481 8.77758 98.2537 9.17084 97.9581 9.48184C97.6625 9.79284 97.2797 10.007 96.86 10.0961L98.4476 12.6882H96.3853L95.1951 10.1862L94.7996 12.679H93.1586L94.1667 6.33026H94.1722Z" fill="black"/>
<path fill-rule="evenodd" clip-rule="evenodd" d="M107.311 6.33026H108.949L107.94 12.679H106.305L107.311 6.33026Z" fill="black"/>
<path fill-rule="evenodd" clip-rule="evenodd" d="M110.19 6.33026H113.783L113.564 7.71001H111.609L111.436 8.79542H113.296L113.077 10.1752H111.217L111.038 11.2992H112.994L112.775 12.679H109.184L110.19 6.33026Z" fill="black"/>
<path fill-rule="evenodd" clip-rule="evenodd" d="M89.6062 6.33026H93.1991L92.9802 7.71001H91.0246L90.8517 8.79542H92.7116L92.4927 10.1752H90.6327L90.4543 11.2992H92.4099L92.191 12.679H88.5999L89.6062 6.33026Z" fill="black"/>
<path fill-rule="evenodd" clip-rule="evenodd" d="M102.716 6.33026H106.347L106.128 7.71001H104.132L103.957 8.79542H105.773L105.554 10.1752H103.738L103.341 12.679H101.707L102.716 6.33026Z" fill="black"/>
<path fill-rule="evenodd" clip-rule="evenodd" d="M116.155 7.71003H116.493C117.744 7.71003 118.233 8.59307 118.097 9.443C117.913 10.5854 117.096 11.2992 116.024 11.2992H115.603L116.155 7.71003ZM114.738 6.33028H116.87C119.411 6.33028 119.998 8.25089 119.79 9.50555C119.506 11.2992 117.908 12.679 115.864 12.679H113.739L114.745 6.33028H114.738Z" fill="black"/>
<path fill-rule="evenodd" clip-rule="evenodd" d="M81.9366 5.46566H84.9629L85.3308 10.0777C87.325 6.61177 89.3597 3.27645 91.4109 0H92.397C90.228 4.18525 88.0848 8.39809 86.0097 12.679H83.7874L83.2447 7.59232C83.1104 6.3303 82.8565 5.79496 81.9366 5.65883V5.46566Z" fill="black"/>
<path fill-rule="evenodd" clip-rule="evenodd" d="M83.0828 2.84228L85.6639 3.93688L85.8883 6.81044H86.0778L88.4197 2.84412V2.64543H83.0828V2.84228Z" fill="black"/>
<path fill-rule="evenodd" clip-rule="evenodd" d="M93.6902 14.1655H94.7498L94.3929 16.6674C94.6789 16.374 95.0687 16.2048 95.4783 16.1965C96.3283 16.1965 96.8857 17.0151 96.7348 18.0251C96.584 19.0351 95.7837 19.8685 94.9356 19.8685C94.7511 19.8726 94.5688 19.8278 94.4073 19.7386C94.2457 19.6494 94.1106 19.519 94.0158 19.3607L93.9606 19.7581H92.8954L93.6902 14.1655ZM95.0129 17.2212C95.4048 17.2212 95.6697 17.5891 95.6071 18.0214C95.5829 18.2293 95.4877 18.4225 95.3375 18.5683C95.1874 18.7141 94.9915 18.8036 94.7829 18.8217C94.3929 18.8217 94.1262 18.4538 94.1887 18.0214C94.2129 17.8135 94.3082 17.6204 94.4583 17.4746C94.6085 17.3288 94.8044 17.2393 95.0129 17.2212Z" fill="black"/>
<path fill-rule="evenodd" clip-rule="evenodd" d="M96.8269 16.2866H98.0963L98.6648 18.06L99.7686 16.2866H100.997L97.7744 21.4634H96.5473L97.905 19.2797L96.8269 16.2866Z" fill="black"/>
<path fill-rule="evenodd" clip-rule="evenodd" d="M107.311 19.7489L108.242 14.171H109.765L108.834 19.7489H107.311Z" fill="black"/>
<path fill-rule="evenodd" clip-rule="evenodd" d="M106.036 14.1655C105.512 15.4017 105.063 16.7153 104.524 17.935L104.364 17.1991L104.392 17.3297C104.267 16.9376 104.072 16.5712 103.818 16.248C103.811 16.239 103.805 16.2304 103.797 16.2222C103.753 16.1652 103.705 16.1082 103.658 16.053L103.569 15.9518C103.193 15.548 102.759 15.2021 102.281 14.9253L103.645 19.7378H105.276C106.036 17.854 106.864 16.0327 107.64 14.1655H106.036Z" fill="black"/>
<path fill-rule="evenodd" clip-rule="evenodd" d="M103.165 14.1654H100.675V14.2868C102.109 14.5664 103.917 15.7677 104.392 17.3223L103.856 14.7173C103.835 14.5537 103.751 14.4049 103.622 14.302C103.493 14.1991 103.329 14.1502 103.165 14.1654Z" fill="black"/>
<path fill-rule="evenodd" clip-rule="evenodd" d="M117.205 15.7034L116.43 17.7786H117.685L117.205 15.7034ZM119.516 19.7673H118.121C118.031 19.5005 118.007 19.1694 117.913 18.9063H116.015L115.66 19.7673H114.057L116.134 14.9841C116.226 14.7744 116.39 14.4874 116.46 14.3605C116.567 14.1765 116.973 14.1526 117.148 14.1526H118.3L119.516 19.7617V19.7673Z" fill="black"/>
<path fill-rule="evenodd" clip-rule="evenodd" d="M274.55 8.99432C274.557 8.82741 274.613 8.66635 274.711 8.53111C274.81 8.39588 274.945 8.29244 275.102 8.23362C275.258 8.17481 275.428 8.16321 275.591 8.20026C275.754 8.23732 275.902 8.3214 276.018 8.44206C276.134 8.56273 276.211 8.71468 276.241 8.87904C276.271 9.04341 276.252 9.21295 276.187 9.36664C276.121 9.52033 276.012 9.65139 275.873 9.74356C275.733 9.83573 275.57 9.88496 275.403 9.88512C275.288 9.88418 275.174 9.86022 275.069 9.81464C274.963 9.76907 274.868 9.70281 274.788 9.61977C274.709 9.53674 274.647 9.43861 274.606 9.33119C274.565 9.22376 274.546 9.10922 274.55 8.99432ZM275.403 9.69136C275.579 9.68609 275.745 9.61136 275.866 9.48353C275.987 9.3557 276.052 9.1852 276.047 9.00942C276.05 8.83376 275.985 8.66374 275.864 8.5358C275.744 8.40785 275.578 8.33217 275.403 8.32497C275.229 8.33553 275.065 8.41211 274.946 8.53907C274.826 8.66604 274.76 8.83381 274.76 9.00816C274.76 9.18251 274.826 9.35029 274.946 9.47725C275.065 9.60421 275.229 9.68079 275.403 9.69136ZM275.285 9.39443H275.106V8.60932H275.428C275.495 8.60229 275.562 8.61543 275.622 8.64706C275.652 8.66857 275.677 8.69779 275.693 8.73181C275.709 8.76582 275.716 8.80342 275.712 8.84082C275.714 8.8828 275.702 8.92416 275.678 8.95897C275.655 8.99378 275.621 9.02025 275.581 9.03458L275.725 9.38184H275.531L275.415 9.07233H275.285V9.39443ZM275.285 8.95658H275.39C275.425 8.95925 275.46 8.95498 275.493 8.94399C275.507 8.93322 275.517 8.91929 275.524 8.90347C275.53 8.88766 275.533 8.87045 275.531 8.8534C275.532 8.83832 275.528 8.82333 275.522 8.80974C275.515 8.79615 275.506 8.78437 275.493 8.7754C275.46 8.76517 275.425 8.76091 275.39 8.76282H275.3L275.285 8.95658Z" fill="black"/>
<path fill-rule="evenodd" clip-rule="evenodd" d="M262.353 3.04559L262.119 4.568C261.733 4.33291 261.292 4.20359 260.841 4.19306C259.784 4.19306 259.034 5.27762 259.034 6.81512C259.034 7.872 259.537 8.51871 260.365 8.51871C260.792 8.49498 261.208 8.37084 261.578 8.15635L261.326 9.75677C260.92 9.89091 260.496 9.96054 260.068 9.96311C258.53 9.96311 257.577 8.80054 257.577 6.94346C257.577 4.4447 258.893 2.68323 260.79 2.68323C261.005 2.67973 261.219 2.70598 261.427 2.76124L262.021 2.91474C262.177 2.98016 262.214 2.99275 262.345 3.04559H262.353Z" fill="black"/>
<path fill-rule="evenodd" clip-rule="evenodd" d="M257.614 4.08986C257.568 4.08325 257.52 4.08325 257.474 4.08986C257.008 4.08986 256.736 4.34149 256.298 5.0184L256.427 4.15528H255.136L254.258 9.83474H255.692C256.208 6.34956 256.336 5.7557 257.021 5.7557H257.124C257.218 5.18005 257.4 4.6224 257.665 4.10244H257.614V4.08986Z" fill="black"/>
<path fill-rule="evenodd" clip-rule="evenodd" d="M249.081 9.75678C248.759 9.8757 248.419 9.94115 248.075 9.95054C247.353 9.95054 246.953 9.51269 246.953 8.69235C246.954 8.52395 246.967 8.35583 246.99 8.18907L247.081 7.63547L247.146 7.18252L247.753 3.28969H249.172L249.003 4.13016H249.741L249.534 5.50913H248.812L248.437 7.88459C248.437 7.98776 248.412 8.06577 248.412 8.11861C248.412 8.41555 248.566 8.54388 248.9 8.54388C249.032 8.55089 249.163 8.53296 249.288 8.49104L249.081 9.74923V9.75678Z" fill="black"/>
<path fill-rule="evenodd" clip-rule="evenodd" d="M243.455 5.93696C243.455 6.65916 243.79 7.14985 244.539 7.52479C245.106 7.80663 245.209 7.89722 245.209 8.1564C245.209 8.50366 244.957 8.67226 244.396 8.67226C243.959 8.67396 243.526 8.59549 243.118 8.44075L242.924 9.75682L242.989 9.7694L243.241 9.82225C243.332 9.83483 243.447 9.85999 243.613 9.87257C243.951 9.89774 244.222 9.92542 244.401 9.92542C245.911 9.92542 246.595 9.31897 246.595 8.02807C246.623 7.68989 246.54 7.35179 246.359 7.06518C246.177 6.77857 245.907 6.55913 245.589 6.44024C244.995 6.15588 244.932 6.09046 244.932 5.82121C244.932 5.50918 245.163 5.35568 245.629 5.35568C245.966 5.36365 246.302 5.39391 246.636 5.44627L246.842 4.1302C246.426 4.06049 246.005 4.02096 245.584 4.01193C243.971 4.01193 243.417 4.87757 243.43 5.93696H243.455Z" fill="black"/>
<path fill-rule="evenodd" clip-rule="evenodd" d="M273.724 9.82223H272.368L272.433 9.26611C272.277 9.46511 272.077 9.62554 271.849 9.73504C271.621 9.84455 271.37 9.9002 271.117 9.89773C270.071 9.89773 269.386 8.9566 269.386 7.53736C269.386 5.64002 270.445 4.0396 271.711 4.0396C272.265 4.0396 272.677 4.29124 273.078 4.81213L273.387 2.79903H274.796L273.724 9.80965V9.82223ZM271.621 8.49107C272.29 8.49107 272.756 7.70344 272.756 6.56856C272.756 5.84636 272.484 5.44625 272.001 5.44625C271.356 5.44625 270.891 6.24646 270.891 7.35618C270.891 8.1111 271.143 8.49107 271.628 8.49107H271.621Z" fill="black"/>
<path fill-rule="evenodd" clip-rule="evenodd" d="M253.601 9.70648C253.125 9.86011 252.629 9.93823 252.129 9.93799C250.541 9.93799 249.701 9.05977 249.701 7.38135C249.701 5.42109 250.76 3.98676 252.194 3.98676C253.374 3.98676 254.129 4.79955 254.129 6.06528C254.117 6.53745 254.052 7.00677 253.936 7.46439H251.11C251.099 7.52412 251.094 7.58482 251.095 7.64557C251.095 8.31744 251.522 8.65212 252.353 8.65212C252.869 8.648 253.377 8.52395 253.837 8.28976L253.619 9.69893L253.601 9.70648ZM252.801 6.30937C252.806 6.2155 252.806 6.12141 252.801 6.02754C252.801 5.56201 252.549 5.29024 252.129 5.29024C251.709 5.29024 251.361 5.6526 251.238 6.30937H252.801Z" fill="black"/>
<path fill-rule="evenodd" clip-rule="evenodd" d="M237.722 9.82225H236.303L237.116 4.43972L235.284 9.82225H234.315L234.2 4.47746L233.334 9.82225H232.005L233.115 2.8242H235.166L235.219 7.16244L236.613 2.8242H238.832L237.722 9.82225Z" fill="black"/>
<path fill-rule="evenodd" clip-rule="evenodd" d="M241.401 7.29076C241.248 7.29076 241.183 7.2656 241.079 7.2656C240.267 7.2656 239.866 7.56253 239.866 8.13123C239.858 8.20307 239.865 8.27588 239.886 8.34501C239.907 8.41414 239.943 8.47809 239.99 8.53277C240.037 8.58745 240.096 8.63168 240.161 8.66262C240.226 8.69357 240.297 8.71056 240.37 8.71252C240.938 8.71252 241.376 8.13123 241.389 7.29076H241.401ZM242.436 9.82224H241.248L241.273 9.22837C241.101 9.4568 240.876 9.63895 240.616 9.75842C240.356 9.8779 240.071 9.93096 239.786 9.91283C239.011 9.91283 238.482 9.2787 238.482 8.36274C238.482 6.96867 239.411 6.16846 240.986 6.16846C241.174 6.17047 241.361 6.18307 241.547 6.20621C241.577 6.08416 241.594 5.95934 241.598 5.83378C241.598 5.45884 241.346 5.31541 240.682 5.31541C240.28 5.31524 239.88 5.372 239.494 5.48401L239.313 5.54943L239.185 5.58718L239.378 4.30886C239.926 4.11652 240.501 4.01206 241.082 3.99934C242.307 3.99934 242.954 4.58063 242.954 5.66518C242.944 6.04584 242.905 6.42519 242.838 6.80007L242.554 8.82827L242.501 9.18811L242.473 9.47749L242.448 9.68384V9.82727L242.436 9.82224Z" fill="black"/>
<path fill-rule="evenodd" clip-rule="evenodd" d="M264.816 7.29076C264.675 7.29076 264.597 7.26559 264.494 7.26559C263.681 7.26559 263.269 7.56253 263.269 8.13123C263.259 8.20488 263.265 8.27983 263.286 8.35104C263.307 8.42226 263.343 8.48809 263.392 8.5441C263.441 8.60012 263.502 8.64503 263.569 8.67581C263.637 8.70659 263.71 8.72254 263.785 8.72257C264.366 8.72257 264.791 8.14129 264.816 7.30082V7.29076ZM265.851 9.82223H264.663L264.698 9.22585C264.524 9.45781 264.295 9.64217 264.031 9.76182C263.767 9.88147 263.477 9.93254 263.188 9.9103C262.413 9.9103 261.885 9.27618 261.885 8.36022C261.885 6.96614 262.813 6.16594 264.401 6.16594C264.595 6.16756 264.79 6.18016 264.982 6.20368C265.012 6.08163 265.029 5.95681 265.033 5.83126C265.033 5.45632 264.781 5.31288 264.117 5.31288C263.715 5.31302 263.315 5.36977 262.929 5.48148L262.723 5.53433L262.594 5.57207L262.788 4.29375C263.336 4.10142 263.911 3.99696 264.492 3.98424C265.717 3.98424 266.364 4.56552 266.364 5.65008C266.354 6.03073 266.315 6.41009 266.248 6.78496L265.951 8.79807L265.911 9.16042L265.873 9.44478L265.848 9.63854L265.861 9.81972L265.851 9.82223Z" fill="black"/>
<path fill-rule="evenodd" clip-rule="evenodd" d="M269.839 4.08991C269.791 4.08307 269.743 4.08307 269.696 4.08991C269.233 4.08991 268.961 4.34155 268.523 5.01846L268.651 4.15534H267.36L266.482 9.84738H267.914C268.432 6.3622 268.561 5.76834 269.245 5.76834H269.348C269.448 5.19412 269.631 4.63732 269.889 4.11508H269.839V4.08991Z" fill="black"/>
<path fill-rule="evenodd" clip-rule="evenodd" d="M263.85 15.3582C263.85 16.6491 263.45 17.4116 262.816 17.4116C262.353 17.4116 262.081 16.9083 262.081 16.1534C262.081 15.25 262.494 14.2183 263.138 14.2183C263.669 14.2183 263.85 14.7719 263.85 15.3658V15.3582ZM265.257 15.3708C265.257 13.939 264.547 12.8167 263.216 12.8167C261.681 12.8167 260.7 14.1705 260.7 16.1735C260.7 17.6053 261.293 18.7805 262.738 18.7805C264.182 18.7805 265.269 17.7462 265.269 15.3708H265.257Z" fill="black"/>
<path fill-rule="evenodd" clip-rule="evenodd" d="M261.137 11.8227L260.918 13.3326C260.565 13.1 260.154 12.9702 259.731 12.9576C258.724 12.9576 258.04 14.0422 258.04 15.5797C258.04 16.6366 258.505 17.2833 259.28 17.2833C259.684 17.2673 260.077 17.1468 260.42 16.9335L260.184 18.5364C259.802 18.6712 259.401 18.7409 258.996 18.7428C257.562 18.7428 256.658 17.5827 256.658 15.7231C256.658 13.2067 257.899 11.4629 259.678 11.4629C259.879 11.4586 260.079 11.4849 260.272 11.5409L260.813 11.6969C260.93 11.7217 261.043 11.765 261.147 11.8253L261.137 11.8227Z" fill="black"/>
<path fill-rule="evenodd" clip-rule="evenodd" d="M252.322 12.8545C252.276 12.8434 252.227 12.8392 252.179 12.8419C251.741 12.8419 251.497 13.0935 251.082 13.7704L251.213 12.9073H250.012L249.197 18.5993H250.528C251.006 15.1142 251.135 14.5102 251.766 14.5102C251.801 14.5094 251.836 14.5136 251.87 14.5228C251.958 13.9507 252.128 13.3941 252.373 12.8696L252.322 12.8444V12.8545Z" fill="black"/>
<path fill-rule="evenodd" clip-rule="evenodd" d="M269.731 18.5364H268.473L268.538 17.9828C268.397 18.1799 268.211 18.3402 267.995 18.4501C267.779 18.5601 267.54 18.6164 267.297 18.6144C266.329 18.6144 265.684 17.6733 265.684 16.2516C265.684 14.3542 266.678 12.7538 267.854 12.7538C268.369 12.7538 268.77 13.0054 269.132 13.5414L269.426 11.5409H270.737L269.731 18.5364ZM267.755 17.1952C268.387 17.1952 268.812 16.4076 268.812 15.2727C268.812 14.548 268.561 14.1605 268.103 14.1605C267.496 14.1605 267.071 14.9481 267.071 16.0729C267.071 16.8278 267.302 17.1952 267.755 17.1952Z" fill="black"/>
<path fill-rule="evenodd" clip-rule="evenodd" d="M239.826 18.5213C239.387 18.6758 238.925 18.7541 238.46 18.7528C236.975 18.7528 236.195 17.8771 236.195 16.1987C236.2 14.2586 237.194 12.8041 238.528 12.8041C239.625 12.8041 240.322 13.6043 240.322 14.8826C240.314 15.356 240.259 15.8273 240.156 16.2893H237.504C237.494 16.3484 237.49 16.4082 237.491 16.468C237.491 17.1273 237.891 17.4619 238.666 17.4619C239.146 17.4563 239.617 17.3327 240.038 17.1021L239.816 18.5213H239.826ZM239.071 15.1267C239.071 15.011 239.071 14.9078 239.071 14.8424C239.071 14.3769 238.84 14.1076 238.44 14.1076C238.04 14.1076 237.715 14.4674 237.587 15.1267H239.071Z" fill="black"/>
<path fill-rule="evenodd" clip-rule="evenodd" d="M255.679 18.5213C255.24 18.6759 254.777 18.7542 254.31 18.7528C252.801 18.7528 252.046 17.8771 252.046 16.1987C252.046 14.2485 253.052 12.8041 254.368 12.8041C255.466 12.8041 256.175 13.6043 256.175 14.8826C256.168 15.356 256.112 15.8273 256.009 16.2893H253.354C253.349 16.3488 253.349 16.4085 253.354 16.468C253.354 17.1273 253.754 17.4619 254.529 17.4619C255.006 17.455 255.473 17.3314 255.891 17.1021L255.672 18.5213H255.679ZM254.924 15.1267C254.93 15.032 254.93 14.9371 254.924 14.8424C254.924 14.3769 254.693 14.1076 254.293 14.1076C253.893 14.1076 253.571 14.4674 253.44 15.1267H254.924Z" fill="black"/>
<path fill-rule="evenodd" clip-rule="evenodd" d="M274.26 18.5213C273.821 18.6738 273.359 18.7521 272.894 18.7528C271.409 18.7528 270.629 17.8771 270.629 16.1987C270.629 14.2485 271.623 12.8041 272.964 12.8041C274.061 12.8041 274.759 13.6043 274.759 14.8826C274.751 15.3561 274.695 15.8275 274.59 16.2893H271.943C271.938 16.3488 271.938 16.4085 271.943 16.468C271.943 17.1273 272.343 17.4619 273.118 17.4619C273.6 17.4582 274.074 17.3345 274.497 17.1021L274.26 18.5213ZM273.505 15.1267C273.505 15.011 273.505 14.9078 273.505 14.8424C273.505 14.3769 273.274 14.1076 272.874 14.1076C272.474 14.1076 272.149 14.4674 272.021 15.1267H273.505Z" fill="black"/>
<path fill-rule="evenodd" clip-rule="evenodd" d="M235.878 13.1136C235.55 12.893 235.161 12.7803 234.766 12.7915C234.225 12.7915 233.799 12.9072 233.799 13.4734C233.799 14.4825 235.76 14.1076 235.76 16.2716C235.76 18.2445 234.469 18.7629 233.296 18.7629C232.756 18.7472 232.224 18.6213 231.733 18.3929L232.056 16.946C232.418 17.2194 232.86 17.3646 233.314 17.3587C233.739 17.3587 234.386 17.243 234.386 16.5082C234.386 15.3582 232.423 15.786 232.423 13.7704C232.423 11.9259 233.57 11.3823 234.688 11.3823C235.307 11.3823 235.901 11.4729 236.235 11.7069L235.888 13.1136H235.878Z" fill="black"/>
<path fill-rule="evenodd" clip-rule="evenodd" d="M243.724 18.5213C243.35 18.6818 242.945 18.7566 242.539 18.7403C241.376 18.7403 240.654 17.5802 240.654 16.1585C240.654 14.3014 241.698 12.8293 243.236 12.8293C243.679 12.8524 244.111 12.981 244.494 13.2042L244.19 14.558C243.933 14.3724 243.626 14.2681 243.309 14.2586C242.599 14.2586 242.083 14.9179 242.083 16.0779C242.083 16.7498 242.458 17.3059 243.037 17.3059C243.352 17.309 243.661 17.2217 243.928 17.0543L243.734 18.5264L243.724 18.5213Z" fill="black"/>
<path fill-rule="evenodd" clip-rule="evenodd" d="M248.709 17.0895C248.644 17.5928 248.578 18.0558 248.54 18.559H247.262L247.365 17.6431C246.965 18.2646 246.552 18.6899 245.815 18.6899C245.015 18.6899 244.577 17.8368 244.577 16.7397C244.581 16.3417 244.616 15.9447 244.68 15.552L245.043 12.9198H246.474L246.077 15.5646C246.027 15.8508 245.997 16.1399 245.986 16.4302C245.986 16.7649 246.142 17.1021 246.53 17.0769C247.109 17.0769 247.458 16.3648 247.562 15.5268L247.962 12.9198H249.348L248.709 17.0895Z" fill="black"/>
<path fill-rule="evenodd" clip-rule="evenodd" d="M275.596 18.4962H275.375V17.5525H275.065V17.3462H275.906V17.5525H275.596V18.4962Z" fill="black"/>
<path fill-rule="evenodd" clip-rule="evenodd" d="M277.028 18.4962H276.822V17.54L276.628 18.4962H276.422L276.228 17.54V18.4962H276.022V17.3462H276.344L276.525 18.2496H276.538L276.719 17.3462H277.028V18.4962Z" fill="black"/>
<path fill-rule="evenodd" clip-rule="evenodd" d="M38.2913 12.726L38.848 12.8943C38.8104 13.0503 38.7517 13.1806 38.6718 13.2854C38.5919 13.3906 38.492 13.47 38.3719 13.5236C38.2531 13.5762 38.1017 13.6025 37.9178 13.6025C37.6942 13.6025 37.5113 13.5706 37.3692 13.5067C37.2285 13.4409 37.1064 13.3263 37.0031 13.1628C36.9005 12.9993 36.8492 12.7898 36.8492 12.5342C36.8492 12.1941 36.9394 11.9329 37.1198 11.7506C37.3015 11.5674 37.5575 11.4757 37.8879 11.4757C38.1467 11.4757 38.3502 11.5284 38.4982 11.6336C38.647 11.7388 38.7574 11.8995 38.8294 12.1156L38.2684 12.2396C38.2494 12.1767 38.229 12.1311 38.207 12.1029C38.1717 12.0541 38.1285 12.0169 38.0773 11.9916C38.0259 11.9653 37.9684 11.9521 37.9047 11.9521C37.7609 11.9521 37.6506 12.0099 37.5737 12.1255C37.5158 12.2119 37.4868 12.3472 37.4868 12.5314C37.4868 12.7597 37.5215 12.9161 37.5911 13.0007C37.6608 13.0853 37.7583 13.1275 37.8837 13.1275C38.0053 13.1275 38.0969 13.0937 38.1585 13.0261C38.2214 12.9584 38.2669 12.8598 38.2949 12.7301L38.2913 12.726ZM39.0752 12.5394C39.0752 12.204 39.1686 11.9428 39.3556 11.7558C39.5424 11.5688 39.8027 11.4753 40.1364 11.4753C40.4786 11.4753 40.7424 11.5674 40.9278 11.7516C41.1133 11.9348 41.206 12.192 41.206 12.5233C41.206 12.7637 41.1653 12.9608 41.0839 13.1147C41.0041 13.2679 40.8876 13.3877 40.7344 13.4741C40.5822 13.5592 40.3924 13.6018 40.165 13.6018C39.9339 13.6018 39.7422 13.5652 39.59 13.4919C39.4397 13.4186 39.317 13.3017 39.2221 13.1412C39.1282 12.9815 39.0812 12.7814 39.0812 12.5408L39.0752 12.5394ZM39.7101 12.5422C39.7101 12.7497 39.7484 12.8988 39.8251 12.9896C39.9021 13.0802 40.0069 13.1256 40.1394 13.1256C40.2756 13.1256 40.3813 13.0808 40.4565 12.9914C40.5307 12.9019 40.5678 12.7425 40.5678 12.5132C40.5678 12.3196 40.5284 12.1786 40.4494 12.09C40.3715 11.9998 40.2657 11.9547 40.1323 11.9547C40.0036 11.9547 39.9007 11.9998 39.8237 12.09C39.7457 12.1792 39.7067 12.3291 39.7067 12.5395L39.7101 12.5422ZM41.5427 11.5103H42.3782L42.7009 12.761L43.0218 11.5103H43.8548V13.5657H43.3361V11.9985L42.9345 13.5657H42.4651L42.0649 11.9985V13.5657H41.5434V11.5104L41.5427 11.5103ZM44.2555 11.5103H45.3115C45.5414 11.5103 45.7134 11.565 45.8273 11.6743C45.9424 11.7836 46 11.939 46 12.1406C46 12.3479 45.9373 12.5099 45.812 12.6264C45.6876 12.7429 45.4974 12.8011 45.2415 12.8011H44.8936V13.5642H44.2556V11.508L44.2555 11.5103ZM44.8936 12.3865H45.0492C45.1717 12.3865 45.2576 12.3655 45.3071 12.3235C45.3568 12.2806 45.3816 12.2259 45.3816 12.1596C45.3816 12.095 45.36 12.0403 45.317 11.9955C45.2741 11.9504 45.1933 11.9279 45.0746 11.9279H44.8931V12.3859L44.8936 12.3865ZM46.3336 11.5103H46.9678V13.0597H47.9586V13.5657H46.3322V11.5104L46.3336 11.5103ZM48.2757 11.5103H48.9113V13.5657H48.2743V11.5104L48.2757 11.5103ZM50.6308 13.2265H49.9064L49.8063 13.5659H49.1566L49.9289 11.511H50.6209L51.3933 13.5673H50.7294L50.628 13.229L50.6308 13.2265ZM50.4969 12.7821L50.2686 12.0433L50.0417 12.7821H50.4941H50.4969ZM51.6018 11.5103H52.1952L52.9689 12.6474V11.5103H53.5679V13.5657H52.9689L52.1994 12.4371V13.566H51.6018V11.5101V11.5103ZM53.847 11.5103H55.7778V12.0179H55.1295V13.5657H54.4953V12.0182H53.847V11.5106V11.5103Z" fill="black"/>
<path fill-rule="evenodd" clip-rule="evenodd" d="M32.4832 14.068L30.6436 14.6479L30.6431 14.6466C31.0082 13.994 31.4445 13.2865 31.8876 12.7411L32.4832 14.068ZM26.4094 0.536591L30.0168 8.57343L30.0172 8.57385C29.608 9.1376 28.3821 10.8317 27.2274 12.4946V7.16232H23.952V14.3135C23.4986 14.0064 23.022 13.7907 22.5631 13.7139V13.3565C22.5631 13.3289 22.5448 13.319 22.5208 13.3333C22.5208 13.3333 22.1671 13.618 20.6125 13.7688C20.1714 13.8181 19.9628 13.7956 19.8035 13.7688C17.5993 13.3981 17.4936 11.783 17.4936 11.783C17.4907 11.7562 17.4879 11.7125 17.4879 11.6857V11.0698C17.4879 11.043 17.4907 10.9993 17.4936 10.9726C17.4936 10.9726 17.6415 9.24185 19.8021 9.05863H20.6097C21.5639 9.18689 22.3291 9.65903 22.3291 9.65903L22.3348 9.65833C22.3573 9.672 22.3771 9.66072 22.3771 9.6338V7.46731C22.3771 7.43968 22.3573 7.4067 22.3334 7.39374C22.3334 7.39374 21.9035 7.11369 20.5928 7.03575C20.5223 6.997 19.3807 6.99122 19.065 7.03575C14.3013 7.4177 14.1251 10.8639 14.1251 11.0215V11.8579C14.1251 11.9601 14.1251 15.4837 19.065 15.7957C19.4563 15.8253 20.153 15.8069 20.455 15.7989C20.5251 15.797 20.5739 15.7957 20.5928 15.7957C20.6 15.7957 20.6071 15.7957 20.6143 15.7957C20.7193 16.3723 21.0045 16.9904 21.4003 17.5608L7.31637 22L0 2.03617L26.4094 0.536591ZM27.5913 4.4556C27.5913 5.49826 26.6951 6.34347 25.5897 6.34347L25.5893 6.34431C24.4834 6.34431 23.5874 5.49925 23.5874 4.45631C23.5874 3.41351 24.4834 2.56831 25.5892 2.56831C26.6941 2.56831 27.5913 3.41295 27.5913 4.4556ZM5.08934 15.7299C5.062 15.7299 5.04044 15.7079 5.04044 15.6806L5.04058 7.20784C5.04058 7.18148 5.06313 7.15823 5.0899 7.15823C5.0899 7.15823 9.20275 7.15964 9.22389 7.15823C10.2759 7.1089 13.4713 7.40459 13.4713 10.1024C13.4713 13.5214 8.37827 13.1532 8.37827 13.1532C8.35078 13.1522 8.32894 13.173 8.32894 13.1992V15.6816C8.32894 15.7079 8.30695 15.7299 8.27989 15.7299H5.08934ZM8.27256 9.02044V11.2566L8.2751 11.2556L9.1461 11.257C9.1461 11.257 10.1327 11.2124 10.2778 10.3037C10.2933 10.2825 10.299 9.90483 10.2778 9.84422C10.189 9.07174 9.05308 9.02044 9.05308 9.02044H8.27256Z" fill="black"/>
<path fill-rule="evenodd" clip-rule="evenodd" d="M25.6796 19.8439C25.946 19.8439 26.1496 19.8439 26.4862 19.6945C27.6493 19.0832 31.5638 9.52334 35.6925 6.58281C35.7165 6.56393 35.7507 6.53658 35.7705 6.50854C35.797 6.46978 35.798 6.43018 35.798 6.43018C35.798 6.43018 35.798 6.23427 35.1857 6.23427C31.5101 6.13421 27.6878 13.8393 25.6795 16.8878C25.6541 16.9216 25.516 16.8878 25.516 16.8878C25.516 16.8878 24.17 15.2994 23.0002 14.6905C22.9763 14.6779 22.8424 14.637 22.7043 14.6469C22.6127 14.6469 22.0686 14.7554 21.8149 15.0246C21.5162 15.3403 21.5218 15.5178 21.5246 15.9026C21.526 15.9336 21.5458 16.0619 21.5824 16.1267C21.8685 16.627 23.175 18.4226 24.2447 19.4134C24.411 19.5318 24.6633 19.8461 25.6809 19.8461L25.6796 19.8439Z" fill="black"/>
<path fill-rule="evenodd" clip-rule="evenodd" d="M36.7779 3.68539H39.8362C40.4395 3.68539 40.9258 3.76714 41.2952 3.93062C41.668 4.0943 41.9755 4.3292 42.2178 4.63531C42.4602 4.94068 42.6359 5.29645 42.7449 5.70264C42.8539 6.10854 42.9084 6.5384 42.9084 6.99222C42.9084 7.70348 42.8267 8.25643 42.6632 8.65106C42.5027 9.04192 42.2785 9.37078 41.9906 9.63762C41.7028 9.90071 41.3938 10.0759 41.0635 10.1633C40.6121 10.2836 40.203 10.3437 39.8364 10.3437H36.778V3.68314L36.7779 3.68539ZM38.8367 5.19413V8.83456H39.3401C39.7705 8.83456 40.0765 8.78758 40.2582 8.69362C40.4399 8.59684 40.5821 8.43054 40.6847 8.1947C40.7873 7.9551 40.8386 7.56894 40.8386 7.03619C40.8386 6.33056 40.7232 5.84761 40.4923 5.58735C40.2621 5.32708 39.8803 5.19695 39.3468 5.19695H38.8333L38.8367 5.19413ZM43.4684 8.14396L45.426 8.02135C45.4683 8.33987 45.5542 8.58228 45.6839 8.74859C45.8953 9.01825 46.1983 9.15308 46.5929 9.15308C46.887 9.15308 47.1125 9.08496 47.2694 8.94872C47.4292 8.80966 47.509 8.64899 47.509 8.46671C47.509 8.29477 47.4329 8.14067 47.2807 8.00443C47.1285 7.86819 46.7771 7.73994 46.2265 7.61967C45.3236 7.41672 44.6795 7.14706 44.2942 6.81069C43.9062 6.47526 43.7122 6.04681 43.7122 5.52534C43.7122 5.18333 43.8108 4.86105 44.0081 4.5585C44.2073 4.25314 44.5057 4.01401 44.9031 3.84113C45.3034 3.66543 45.8502 3.57758 46.5436 3.57758C47.3939 3.57758 48.0418 3.73684 48.4871 4.05535C48.9344 4.37106 49.2008 4.8742 49.2863 5.5648L47.3456 5.67896C47.2939 5.37923 47.1844 5.16125 47.0172 5.02501C46.8527 4.88877 46.6254 4.82065 46.335 4.82065C46.0954 4.82065 45.915 4.87232 45.7938 4.97568C45.6717 5.07621 45.6106 5.19883 45.6106 5.34353C45.6106 5.4497 45.6604 5.54507 45.76 5.62963C45.8568 5.71795 46.087 5.80017 46.4506 5.87627C47.3507 6.07077 47.9945 6.26808 48.382 6.46821C48.7729 6.66552 49.0562 6.91123 49.2319 7.20532C49.4113 7.49941 49.5011 7.82826 49.5011 8.19188C49.5011 8.61939 49.3827 9.01355 49.1459 9.37435C48.9091 9.73515 48.5789 10.0094 48.1551 10.197C47.7323 10.3802 47.1984 10.4718 46.5533 10.4718C45.4202 10.4718 44.6353 10.2538 44.1987 9.81788C43.7618 9.38191 43.5147 8.82756 43.4574 8.15481L43.4684 8.14396ZM50.0346 8.14396L51.9923 8.02135C52.0346 8.33987 52.1205 8.58228 52.2502 8.74859C52.4616 9.01825 52.7646 9.15308 53.1592 9.15308C53.4533 9.15308 53.6788 9.08496 53.8357 8.94872C53.9964 8.80966 54.0767 8.64899 54.0767 8.46671C54.0767 8.29477 54.0006 8.14067 53.8484 8.00443C53.6962 7.86819 53.3448 7.73994 52.7942 7.61967C51.8913 7.41672 51.2472 7.14706 50.862 6.81069C50.4739 6.47526 50.2799 6.04681 50.2799 5.52534C50.2799 5.18333 50.3781 4.86105 50.5744 4.5585C50.7746 4.25314 51.0729 4.01401 51.4694 3.84113C51.8687 3.66543 52.4156 3.57758 53.1099 3.57758C53.9602 3.57758 54.6081 3.73684 55.0534 4.05535C55.5016 4.37106 55.768 4.8742 55.8526 5.5648L53.9133 5.67755C53.8606 5.37782 53.7512 5.15984 53.5849 5.0236C53.4214 4.88736 53.194 4.81924 52.9027 4.81924C52.6631 4.81924 52.4827 4.87092 52.3615 4.97427C52.2394 5.07481 52.1783 5.19789 52.1783 5.34353C52.1783 5.4497 52.2281 5.54507 52.3277 5.62963C52.4245 5.71795 52.6547 5.80017 53.0183 5.87627C53.9184 6.06983 54.5625 6.26667 54.9506 6.4668C55.3405 6.66411 55.6238 6.90982 55.8004 7.20391C55.9789 7.498 56.0682 7.82685 56.0682 8.19047C56.0682 8.61798 55.9503 9.01214 55.7144 9.37294C55.4777 9.73374 55.1469 10.0081 54.7222 10.196C54.2994 10.3802 53.7657 10.4723 53.1212 10.4723C51.988 10.4723 51.203 10.2538 50.7661 9.81689C50.3301 9.38093 50.083 8.82657 50.0248 8.15383L50.0346 8.14396Z" fill="black"/>
</g>
</svg>
